<svg width="8" height="9" viewBox="0 0 8 9" fill="none" xmlns="http://www.w3.org/2000/svg">
<g clip-path="url(#clip0_3_374)">
<path d="M0 4.11805V0.928711C0 0.514492 0.335781 0.178711 0.75 0.178711H3.93934C4.13826 0.178712 4.32902 0.25773 4.46967 0.398383L7.78033 3.70904C8.07322 4.00193 8.07322 4.4768 7.78033 4.7697L4.59098 7.95904C4.29809 8.25193 3.82322 8.25193 3.53033 7.95904L0.219672 4.64838C0.0790194 4.50773 1.04012e-06 4.31697 0 4.11805H0ZM1.75 1.17871C1.33578 1.17871 1 1.51449 1 1.92871C1 2.34293 1.33578 2.67871 1.75 2.67871C2.16422 2.67871 2.5 2.34293 2.5 1.92871C2.5 1.51449 2.16422 1.17871 1.75 1.17871Z" fill="black"/>
</g>
<defs>
<clipPath id="clip0_3_374">
<rect width="8" height="8" fill="white" transform="translate(0 0.178711)"/>
</clipPath>
</defs>
</svg>
