<svg width="182" height="182" viewBox="0 0 182 182" fill="none" xmlns="http://www.w3.org/2000/svg">
<rect width="182" height="182" rx="6" fill="#D1D1D1"/>
<path d="M122.66 21.2334H57.2542C52.4378 21.2334 48.5333 25.1378 48.5333 29.9542V152.046C48.5333 156.862 52.4378 160.767 57.2542 160.767H122.66C127.477 160.767 131.381 156.862 131.381 152.046V29.9542C131.381 25.1378 127.477 21.2334 122.66 21.2334Z" fill="white"/>
<path d="M122.66 27.7739H107.399C106.941 27.7737 106.496 27.9176 106.125 28.1851C105.753 28.4526 105.476 28.8302 105.332 29.2643L103.647 34.3146H76.2671L74.5829 29.2643C74.4385 28.8302 74.1611 28.4526 73.79 28.1851C73.419 27.9176 72.9731 27.7737 72.5156 27.7739H57.2542C56.6759 27.7739 56.1214 28.0036 55.7125 28.4125C55.3036 28.8214 55.0739 29.3759 55.0739 29.9541V152.046C55.0739 152.624 55.3036 153.179 55.7125 153.587C56.1214 153.996 56.6759 154.226 57.2542 154.226H122.66C123.239 154.226 123.793 153.996 124.202 153.587C124.611 153.179 124.841 152.624 124.841 152.046V29.9541C124.841 29.3759 124.611 28.8214 124.202 28.4125C123.793 28.0036 123.239 27.7739 122.66 27.7739Z" fill="#191919"/>
<path d="M92.1375 32.1343H79.0562C78.478 32.1343 77.9235 31.9046 77.5146 31.4958C77.1057 31.0869 76.876 30.5324 76.876 29.9541C76.876 29.3759 77.1057 28.8214 77.5146 28.4125C77.9235 28.0036 78.478 27.7739 79.0562 27.7739H92.1375C92.7157 27.7739 93.2703 28.0036 93.6791 28.4125C94.088 28.8214 94.3177 29.3759 94.3177 29.9541C94.3177 30.5324 94.088 31.0869 93.6791 31.4958C93.2703 31.9046 92.7157 32.1343 92.1375 32.1343Z" fill="#191919"/>
<path d="M100.858 32.1343H98.6781C98.0999 32.1343 97.5453 31.9046 97.1365 31.4958C96.7276 31.0869 96.4979 30.5324 96.4979 29.9541C96.4979 29.3759 96.7276 28.8214 97.1365 28.4125C97.5453 28.0036 98.0999 27.7739 98.6781 27.7739H100.858C101.437 27.7739 101.991 28.0036 102.4 28.4125C102.809 28.8214 103.039 29.3759 103.039 29.9541C103.039 30.5324 102.809 31.0869 102.4 31.4958C101.991 31.9046 101.437 32.1343 100.858 32.1343Z" fill="#191919"/>
</svg>
