<svg width="182" height="182" viewBox="0 0 182 182" fill="none" xmlns="http://www.w3.org/2000/svg">
<rect width="182" height="182" rx="6" fill="#D1D1D1"/>
<path d="M88.2662 97.1181L81.1186 94.5586C80.8797 94.4731 80.626 94.4365 80.3727 94.4508C80.1194 94.4651 79.8715 94.5301 79.6438 94.642C79.416 94.7539 79.2131 94.9103 79.0469 95.1021C78.8808 95.2939 78.7548 95.517 78.6764 95.7584L67.9165 128.916H51.1884C50.6856 128.916 50.2033 129.115 49.8478 129.471C49.4922 129.826 49.2925 130.309 49.2925 130.812V138.395C49.2925 138.898 49.4922 139.38 49.8478 139.736C50.2033 140.091 50.6856 140.291 51.1884 140.291H74.7926C75.1931 140.291 75.5833 140.164 75.9072 139.929C76.2312 139.693 76.4723 139.361 76.596 138.98L89.4314 99.4882C89.5835 99.0192 89.5469 98.5094 89.3294 98.0669C89.1118 97.6244 88.7305 97.2841 88.2662 97.1181Z" fill="#191919"/>
<path d="M94.7569 89.4032L80.4806 84.2463C80.2415 84.1589 79.9872 84.1209 79.733 84.1345C79.4789 84.1482 79.2301 84.2132 79.0018 84.3257C78.7734 84.4381 78.5699 84.5952 78.4032 84.7876C78.2366 84.98 78.1102 85.2039 78.0316 85.446L75.1119 94.4706C74.9607 94.9384 74.9972 95.4466 75.2135 95.8881C75.4299 96.3295 75.8093 96.6696 76.2716 96.8367L90.5479 101.975C90.7545 102.05 90.9727 102.088 91.1925 102.088C91.5931 102.089 91.9834 101.962 92.3074 101.726C92.6314 101.491 92.8725 101.159 92.9959 100.778L95.9157 91.7719C96.0677 91.3039 96.0318 90.7951 95.8155 90.3531C95.5993 89.9111 95.2197 89.5704 94.7569 89.4032Z" fill="#757575"/>
<path d="M145.569 84.0985C145.463 83.8733 145.314 83.6712 145.13 83.5038C144.946 83.3363 144.73 83.2069 144.496 83.1229L133.794 79.27C133.56 79.1854 133.311 79.1477 133.062 79.1593C132.814 79.1708 132.57 79.2312 132.344 79.3371C132.119 79.443 131.917 79.5924 131.749 79.7765C131.581 79.9607 131.452 80.1761 131.367 80.4104L126.229 94.6818C126.059 95.1548 126.084 95.676 126.298 96.1308C126.512 96.5856 126.898 96.9368 127.371 97.1072L138.073 100.96C138.279 101.036 138.496 101.074 138.716 101.074C139.106 101.074 139.486 100.953 139.806 100.729C140.125 100.504 140.367 100.187 140.5 99.8203L145.637 85.5491C145.808 85.0757 145.783 84.5539 145.569 84.0985Z" fill="#191919"/>
<path d="M136.362 72.1346L54.3058 42.5924C54.0716 42.5074 53.8229 42.4696 53.5741 42.481C53.3252 42.4924 53.0811 42.5528 52.8556 42.6587C52.6302 42.7647 52.4278 42.9141 52.2602 43.0984C52.0926 43.2827 51.9631 43.4983 51.879 43.7328L44.1721 65.1396C43.3208 67.5051 43.444 70.1118 44.5146 72.3864C45.5851 74.661 47.5153 76.4172 49.8807 77.2688L124.802 104.243C125.008 104.318 125.225 104.357 125.444 104.357C125.835 104.357 126.216 104.237 126.535 104.013C126.854 103.788 127.096 103.471 127.228 103.103L137.503 74.5599C137.673 74.0869 137.649 73.5657 137.435 73.1109C137.221 72.6561 136.835 72.305 136.362 72.1346Z" fill="white"/>
<path d="M151.648 62.5547C151.594 62.221 151.451 61.9079 151.235 61.6479C151.019 61.3878 150.737 61.1903 150.419 61.0759L66.578 30.8888C64.212 30.0421 61.6069 30.1677 59.3333 31.2379C57.0598 32.3081 55.303 34.2358 54.4479 36.5987L51.8791 43.732L51.2369 45.5153L135.077 75.6997C135.379 75.8092 135.704 75.8397 136.022 75.7886C136.339 75.7374 136.638 75.6061 136.891 75.4071L150.948 64.3482C151.214 64.1389 151.42 63.8622 151.543 63.5468C151.666 63.2314 151.702 62.8889 151.648 62.5547Z" fill="#757575"/>
<path d="M72.5001 61.1146C72.281 61.1147 72.0635 61.0762 71.8578 61.0008L57.5874 55.8629C57.3468 55.7835 57.1246 55.6567 56.9339 55.49C56.7431 55.3234 56.5877 55.1202 56.4769 54.8924C56.366 54.6647 56.3018 54.417 56.2883 54.1641C56.2747 53.9112 56.3119 53.6581 56.3978 53.4198C56.4836 53.1815 56.6164 52.9628 56.7882 52.7766C56.96 52.5905 57.1673 52.4406 57.398 52.336C57.6286 52.2313 57.8779 52.1739 58.1311 52.1672C58.3843 52.1604 58.6363 52.2045 58.8722 52.2968L73.1426 57.4348C73.5614 57.5868 73.9133 57.8814 74.1365 58.2669C74.3598 58.6525 74.4401 59.1043 74.3634 59.5432C74.2868 59.9821 74.058 60.3799 73.7173 60.667C73.3766 60.954 72.9456 61.1119 72.5001 61.1129V61.1146Z" fill="#757575"/>
<path d="M81.4196 64.3247C81.2005 64.3252 80.983 64.287 80.7771 64.2119L77.2094 62.9268C76.9684 62.8478 76.7458 62.7212 76.5547 62.5546C76.3635 62.388 76.2078 62.1847 76.0966 61.9568C75.9854 61.7289 75.921 61.481 75.9073 61.2278C75.8936 60.9746 75.9308 60.7213 76.0168 60.4827C76.1028 60.2442 76.2357 60.0253 76.4077 59.839C76.5798 59.6527 76.7875 59.5029 77.0185 59.3983C77.2495 59.2937 77.4991 59.2365 77.7526 59.2301C78.0061 59.2237 78.2583 59.2682 78.4942 59.361L82.0622 60.6459C82.481 60.7979 82.8328 61.0925 83.0561 61.478C83.2793 61.8636 83.3597 62.3154 83.283 62.7543C83.2063 63.1932 82.9776 63.591 82.6368 63.878C82.2961 64.1651 81.8652 64.3229 81.4196 64.3239V64.3247Z" fill="#757575"/>
<path d="M51.1885 125.124H41.7089C40.6618 125.124 39.813 125.973 39.813 127.02V142.187C39.813 143.234 40.6618 144.083 41.7089 144.083H51.1885C52.2356 144.083 53.0844 143.234 53.0844 142.187V127.02C53.0844 125.973 52.2356 125.124 51.1885 125.124Z" fill="#757575"/>
<path d="M41.7089 117.54H32.2293C31.1822 117.54 30.3334 118.389 30.3334 119.436V149.771C30.3334 150.818 31.1822 151.667 32.2293 151.667H41.7089C42.756 151.667 43.6048 150.818 43.6048 149.771V119.436C43.6048 118.389 42.756 117.54 41.7089 117.54Z" fill="#191919"/>
</svg>
