<svg width="182" height="182" viewBox="0 0 182 182" fill="none" xmlns="http://www.w3.org/2000/svg">
<rect width="182" height="182" rx="6" fill="#D1D1D1"/>
<path d="M142.476 53.8636L139.442 41.7302C139.278 41.0741 138.899 40.4917 138.366 40.0755C137.833 39.6593 137.176 39.4332 136.5 39.4331H118.3C117.624 39.4332 116.967 39.6593 116.434 40.0755C115.901 40.4917 115.522 41.0741 115.358 41.7302L112.324 53.8636C112.212 54.3108 112.204 54.7776 112.3 55.2286C112.395 55.6795 112.592 56.1028 112.876 56.4662C113.159 56.8296 113.522 57.1235 113.936 57.3257C114.351 57.5279 114.806 57.6331 115.267 57.6331H139.533C139.994 57.6331 140.449 57.5279 140.864 57.3257C141.278 57.1235 141.641 56.8296 141.924 56.4662C142.208 56.1028 142.405 55.6795 142.5 55.2286C142.596 54.7776 142.588 54.3108 142.476 53.8636Z" fill="#191919"/>
<path d="M148.633 51.5664H33.3667C24.9904 51.5664 18.2 58.3568 18.2 66.7331V127.4C18.2 135.776 24.9904 142.566 33.3667 142.566H148.633C157.01 142.566 163.8 135.776 163.8 127.4V66.7331C163.8 58.3568 157.01 51.5664 148.633 51.5664Z" fill="white"/>
<path d="M148.633 51.5664H33.3667C29.3457 51.5711 25.4907 53.1706 22.6475 56.0139C19.8042 58.8571 18.2047 62.7121 18.2 66.7331V81.8997H163.8V66.7331C163.795 62.7121 162.196 58.8571 159.353 56.0139C156.509 53.1706 152.654 51.5711 148.633 51.5664Z" fill="white"/>
<path d="M112.233 127.4C128.986 127.4 142.567 113.819 142.567 97.0662C142.567 80.3136 128.986 66.7329 112.233 66.7329C95.4807 66.7329 81.9 80.3136 81.9 97.0662C81.9 113.819 95.4807 127.4 112.233 127.4Z" fill="#757575"/>
<path d="M112.233 118.3C123.96 118.3 133.467 108.793 133.467 97.0663C133.467 85.3395 123.96 75.833 112.233 75.833C100.506 75.833 91 85.3395 91 97.0663C91 108.793 100.506 118.3 112.233 118.3Z" fill="#191919"/>
<path d="M148.633 69.7664H142.567C141.762 69.7664 140.991 69.4468 140.422 68.8779C139.853 68.3091 139.533 67.5375 139.533 66.733C139.533 65.9286 139.853 65.157 140.422 64.5882C140.991 64.0193 141.762 63.6997 142.567 63.6997H148.633C149.438 63.6997 150.209 64.0193 150.778 64.5882C151.347 65.157 151.667 65.9286 151.667 66.733C151.667 67.5375 151.347 68.3091 150.778 68.8779C150.209 69.4468 149.438 69.7664 148.633 69.7664Z" fill="#191919"/>
<path d="M103.133 100.1C102.329 100.1 101.557 99.7802 100.988 99.2113C100.42 98.6425 100.1 97.8709 100.1 97.0664C100.104 93.8496 101.383 90.7655 103.658 88.4909C105.932 86.2162 109.017 84.9367 112.233 84.9331C113.038 84.9331 113.809 85.2527 114.378 85.8215C114.947 86.3904 115.267 87.1619 115.267 87.9664C115.267 88.7709 114.947 89.5425 114.378 90.1113C113.809 90.6802 113.038 90.9998 112.233 90.9998C110.625 91.0014 109.083 91.6411 107.945 92.7784C106.808 93.9158 106.168 95.458 106.167 97.0664C106.167 97.8709 105.847 98.6425 105.278 99.2113C104.709 99.7802 103.938 100.1 103.133 100.1Z" fill="white"/>
</svg>
