<svg width="182" height="182" viewBox="0 0 182 182" fill="none" xmlns="http://www.w3.org/2000/svg">
<rect width="182" height="182" rx="6" fill="#D1D1D1"/>
<path d="M143.135 39.4331H38.8646C35.7232 39.4368 32.7115 40.6864 30.4902 42.9077C28.2689 45.129 27.0193 48.1407 27.0156 51.2821V122.376C27.0156 123.004 27.2653 123.607 27.7097 124.052C28.1541 124.496 28.7569 124.746 29.3854 124.746H48.3438V127.115C48.3458 129 49.0955 130.807 50.4283 132.14C51.7611 133.473 53.5682 134.223 55.4531 134.225H126.547C128.432 134.223 130.239 133.473 131.572 132.14C132.905 130.807 133.654 129 133.656 127.115V124.746H152.615C153.243 124.746 153.846 124.496 154.29 124.052C154.735 123.607 154.984 123.004 154.984 122.376V51.2821C154.981 48.1407 153.731 45.129 151.51 42.9077C149.289 40.6864 146.277 39.4368 143.135 39.4331Z" fill="white"/>
<path d="M143.135 48.9121H98.1094C97.4809 48.9121 96.8781 49.1618 96.4337 49.6062C95.9893 50.0506 95.7396 50.6534 95.7396 51.2819C95.7396 52.5389 95.2403 53.7444 94.3514 54.6333C93.4626 55.5221 92.257 56.0215 91 56.0215C89.743 56.0215 88.5375 55.5221 87.6486 54.6333C86.7598 53.7444 86.2604 52.5389 86.2604 51.2819C86.2604 50.6534 86.0108 50.0506 85.5663 49.6062C85.1219 49.1618 84.5191 48.9121 83.8906 48.9121H38.8646C38.2361 48.9121 37.6333 49.1618 37.1889 49.6062C36.7445 50.0506 36.4948 50.6534 36.4948 51.2819V108.157C36.4948 108.785 36.7445 109.388 37.1889 109.833C37.6333 110.277 38.2361 110.527 38.8646 110.527H143.135C143.764 110.527 144.367 110.277 144.811 109.833C145.256 109.388 145.505 108.785 145.505 108.157V51.2819C145.505 50.6534 145.256 50.0506 144.811 49.6062C144.367 49.1618 143.764 48.9121 143.135 48.9121Z" fill="#191919"/>
<path d="M91 53.6517C92.3088 53.6517 93.3698 52.5907 93.3698 51.2819C93.3698 49.9731 92.3088 48.9121 91 48.9121C89.6912 48.9121 88.6302 49.9731 88.6302 51.2819C88.6302 52.5907 89.6912 53.6517 91 53.6517Z" fill="#191919"/>
<path d="M164.464 120.006H131.286C130.658 120.006 130.055 120.256 129.611 120.7C129.166 121.144 128.917 121.747 128.917 122.376V127.115C128.916 127.744 128.666 128.346 128.222 128.79C127.778 129.235 127.175 129.484 126.547 129.485H55.4531C54.8249 129.484 54.2226 129.234 53.7784 128.79C53.3341 128.346 53.0842 127.743 53.0834 127.115V122.376C53.0834 121.747 52.8337 121.144 52.3893 120.7C51.9448 120.256 51.3421 120.006 50.7136 120.006H17.5365C16.908 120.006 16.3052 120.256 15.8608 120.7C15.4164 121.144 15.1667 121.747 15.1667 122.376V127.115C15.1716 131.513 16.9209 135.73 20.0308 138.84C23.1407 141.95 27.3572 143.699 31.7552 143.704H150.245C154.643 143.699 158.859 141.949 161.969 138.839C165.079 135.73 166.828 131.513 166.833 127.115V122.376C166.833 121.747 166.584 121.144 166.139 120.7C165.695 120.256 165.092 120.006 164.464 120.006Z" fill="#757575"/>
</svg>
