<svg width="50" height="19" viewBox="0 0 50 19" fill="none" xmlns="http://www.w3.org/2000/svg">
<rect width="50" height="19" rx="4" fill="#191919"/>
<path d="M15.6562 10.2812V11.8262H8.48535L8.38965 10.6299L12.5391 4.04688H14.1045L12.4092 6.88379L10.3447 10.2812H15.6562ZM14.5283 4.04688V14H12.5596V4.04688H14.5283ZM16.9004 13.0498C16.9004 12.7581 17.0007 12.5143 17.2012 12.3184C17.4062 12.1224 17.6774 12.0244 18.0146 12.0244C18.3519 12.0244 18.6208 12.1224 18.8213 12.3184C19.0264 12.5143 19.1289 12.7581 19.1289 13.0498C19.1289 13.3415 19.0264 13.5853 18.8213 13.7812C18.6208 13.9772 18.3519 14.0752 18.0146 14.0752C17.6774 14.0752 17.4062 13.9772 17.2012 13.7812C17.0007 13.5853 16.9004 13.3415 16.9004 13.0498ZM25.8623 3.94434H26.1494V5.5166H26.0332C25.5137 5.5166 25.0511 5.59408 24.6455 5.74902C24.2399 5.90397 23.8958 6.125 23.6133 6.41211C23.3353 6.69466 23.1211 7.03646 22.9707 7.4375C22.8249 7.83854 22.752 8.28743 22.752 8.78418V10.4385C22.752 10.7939 22.7861 11.1084 22.8545 11.3818C22.9274 11.6507 23.0299 11.8763 23.1621 12.0586C23.2988 12.2363 23.4583 12.3708 23.6406 12.4619C23.8229 12.5485 24.028 12.5918 24.2559 12.5918C24.4701 12.5918 24.6637 12.5462 24.8369 12.4551C25.0146 12.3639 25.165 12.2363 25.2881 12.0723C25.4157 11.9036 25.5114 11.7077 25.5752 11.4844C25.6436 11.2565 25.6777 11.0081 25.6777 10.7393C25.6777 10.4704 25.6436 10.222 25.5752 9.99414C25.5114 9.76628 25.4157 9.57031 25.2881 9.40625C25.1605 9.23763 25.0055 9.10775 24.8232 9.0166C24.641 8.92546 24.4359 8.87988 24.208 8.87988C23.8981 8.87988 23.6247 8.9528 23.3877 9.09863C23.1553 9.23991 22.973 9.4222 22.8408 9.64551C22.7087 9.86882 22.638 10.1035 22.6289 10.3496L22.0342 9.9668C22.0479 9.61589 22.1208 9.2832 22.2529 8.96875C22.3896 8.6543 22.5765 8.3763 22.8135 8.13477C23.055 7.88867 23.3444 7.69727 23.6816 7.56055C24.0189 7.41927 24.3994 7.34863 24.8232 7.34863C25.2881 7.34863 25.696 7.4375 26.0469 7.61523C26.4023 7.79297 26.6986 8.03678 26.9355 8.34668C27.1725 8.65658 27.3503 9.01432 27.4688 9.41992C27.5872 9.82552 27.6465 10.2585 27.6465 10.7188C27.6465 11.2018 27.5667 11.6507 27.4072 12.0654C27.2523 12.4801 27.0267 12.8424 26.7305 13.1523C26.4388 13.4622 26.0879 13.7038 25.6777 13.877C25.2676 14.0501 24.8073 14.1367 24.2969 14.1367C23.7682 14.1367 23.2874 14.041 22.8545 13.8496C22.4261 13.6536 22.057 13.3802 21.7471 13.0293C21.4372 12.6784 21.1979 12.2614 21.0293 11.7783C20.8652 11.2952 20.7832 10.7666 20.7832 10.1924V9.42676C20.7832 8.62467 20.8994 7.89095 21.1318 7.22559C21.3688 6.55566 21.7083 5.97689 22.1504 5.48926C22.5924 4.99707 23.1257 4.61654 23.75 4.34766C24.3743 4.07878 25.0785 3.94434 25.8623 3.94434Z" fill="white"/>
<path d="M36.6954 5.17734C36.8358 4.94089 37.1642 4.94089 37.3046 5.17734L38.7855 7.6726C38.8349 7.7558 38.9133 7.8155 39.0041 7.83898L41.7271 8.54341C41.9851 8.61016 42.0866 8.93745 41.9153 9.15034L40.1076 11.3969C40.0474 11.4718 40.0174 11.5684 40.0241 11.6661L40.2261 14.5968C40.2452 14.8745 39.9794 15.0767 39.7332 14.9719L37.1351 13.8651C37.0485 13.8282 36.9515 13.8282 36.8649 13.8651L34.2668 14.9719C34.0206 15.0767 33.7548 14.8745 33.7739 14.5968L33.9759 11.6661C33.9826 11.5684 33.9526 11.4718 33.8924 11.3969L32.0847 9.15034C31.9134 8.93745 32.0149 8.61016 32.2729 8.54341L34.9959 7.83898C35.0867 7.8155 35.1651 7.7558 35.2145 7.6726L36.6954 5.17734Z" fill="white"/>
</svg>
