<svg width="182" height="182" viewBox="0 0 182 182" fill="none" xmlns="http://www.w3.org/2000/svg">
<rect width="182" height="182" rx="6" fill="#D1D1D1"/>
<path d="M58.5 136.067H49.8333C44.6616 136.067 39.7017 134.012 36.0448 130.355C32.3878 126.698 30.3333 121.738 30.3333 116.567C30.3333 111.395 32.3878 106.435 36.0448 102.778C39.7017 99.1212 44.6616 97.0667 49.8333 97.0667H121.333C121.908 97.066 122.458 96.8375 122.865 96.4313C123.271 96.0251 123.499 95.4745 123.5 94.9001V88.4001C123.5 87.8254 123.728 87.2743 124.135 86.868C124.541 86.4617 125.092 86.2334 125.667 86.2334C126.241 86.2334 126.792 86.4617 127.199 86.868C127.605 87.2743 127.833 87.8254 127.833 88.4001V94.9001C127.831 96.6234 127.146 98.2756 125.927 99.4942C124.709 100.713 123.057 101.398 121.333 101.4H49.8333C45.8109 101.4 41.9532 102.998 39.1089 105.842C36.2646 108.687 34.6667 112.544 34.6667 116.567C34.6667 120.589 36.2646 124.447 39.1089 127.291C41.9532 130.135 45.8109 131.733 49.8333 131.733H58.5C59.0746 131.733 59.6257 131.962 60.0321 132.368C60.4384 132.774 60.6667 133.325 60.6667 133.9C60.6667 134.475 60.4384 135.026 60.0321 135.432C59.6257 135.838 59.0746 136.067 58.5 136.067Z" fill="#757575"/>
<path d="M67.1667 125.233H58.5C57.3034 125.233 56.3333 126.203 56.3333 127.4V140.4C56.3333 141.597 57.3034 142.567 58.5 142.567H67.1667C68.3633 142.567 69.3333 141.597 69.3333 140.4V127.4C69.3333 126.203 68.3633 125.233 67.1667 125.233Z" fill="#191919"/>
<path d="M112.667 64.5669H106.167C105.018 64.568 103.916 65.025 103.104 65.8374C102.291 66.6498 101.834 67.7513 101.833 68.9002V81.9002C101.834 83.0491 102.291 84.1507 103.104 84.9631C103.916 85.7755 105.018 86.2324 106.167 86.2336H112.667C113.241 86.2336 113.792 86.0053 114.199 85.599C114.605 85.1926 114.833 84.6415 114.833 84.0669V66.7336C114.833 66.1589 114.605 65.6078 114.199 65.2015C113.792 64.7952 113.241 64.5669 112.667 64.5669Z" fill="white"/>
<path d="M75.8334 64.5669H69.3334C68.7587 64.5669 68.2076 64.7952 67.8013 65.2015C67.395 65.6078 67.1667 66.1589 67.1667 66.7336V84.0669C67.1667 84.6415 67.395 85.1926 67.8013 85.599C68.2076 86.0053 68.7587 86.2336 69.3334 86.2336H75.8334C76.9823 86.2324 78.0838 85.7755 78.8962 84.9631C79.7086 84.1507 80.1655 83.0491 80.1667 81.9002V68.9002C80.1655 67.7513 79.7086 66.6498 78.8962 65.8374C78.0838 65.025 76.9823 64.568 75.8334 64.5669Z" fill="white"/>
<path d="M91 21.2334C81.2346 21.2443 71.8722 25.1284 64.967 32.0337C58.0617 38.9389 54.1776 48.3013 54.1667 58.0667V62.4001C54.1667 62.9747 54.395 63.5258 54.8013 63.9321C55.2076 64.3385 55.7587 64.5667 56.3334 64.5667H62.8334C63.408 64.5667 63.9591 64.3385 64.3654 63.9321C64.7717 63.5258 65 62.9747 65 62.4001V58.0667C65 51.1711 67.7393 44.5579 72.6152 39.682C77.4912 34.806 84.1044 32.0667 91 32.0667C97.8956 32.0667 104.509 34.806 109.385 39.682C114.261 44.5579 117 51.1711 117 58.0667V62.4001C117 62.9747 117.228 63.5258 117.635 63.9321C118.041 64.3385 118.592 64.5667 119.167 64.5667H125.667C126.241 64.5667 126.792 64.3385 127.199 63.9321C127.605 63.5258 127.833 62.9747 127.833 62.4001V58.0667C127.822 48.3013 123.938 38.9389 117.033 32.0337C110.128 25.1284 100.765 21.2443 91 21.2334V21.2334Z" fill="white"/>
<path d="M143 107.9H73.6667C68.8802 107.9 65 111.78 65 116.567V151.233C65 156.02 68.8802 159.9 73.6667 159.9H143C147.786 159.9 151.667 156.02 151.667 151.233V116.567C151.667 111.78 147.786 107.9 143 107.9Z" fill="#757575"/>
<path d="M138.667 107.9H78V159.9H138.667V107.9Z" fill="white"/>
<path d="M145.167 138.234C144.592 138.234 144.041 138.005 143.635 137.599C143.228 137.193 143 136.642 143 136.067V131.734C143 131.159 143.228 130.608 143.635 130.201C144.041 129.795 144.592 129.567 145.167 129.567C145.741 129.567 146.292 129.795 146.699 130.201C147.105 130.608 147.333 131.159 147.333 131.734V136.067C147.333 136.642 147.105 137.193 146.699 137.599C146.292 138.005 145.741 138.234 145.167 138.234Z" fill="white"/>
<path d="M108.333 151.234C117.906 151.234 125.667 143.473 125.667 133.9C125.667 124.327 117.906 116.567 108.333 116.567C98.7604 116.567 91 124.327 91 133.9C91 143.473 98.7604 151.234 108.333 151.234Z" fill="#757575"/>
<path d="M115.948 132.042L105.115 125.542C104.786 125.345 104.411 125.238 104.028 125.234C103.644 125.229 103.266 125.326 102.933 125.515C102.599 125.703 102.321 125.978 102.128 126.309C101.935 126.64 101.833 127.017 101.833 127.4V140.4C101.833 140.783 101.935 141.16 102.128 141.491C102.321 141.823 102.599 142.097 102.933 142.285C103.266 142.474 103.644 142.571 104.028 142.566C104.411 142.562 104.786 142.455 105.115 142.258L115.948 135.758C116.269 135.565 116.534 135.293 116.719 134.967C116.903 134.642 117 134.274 117 133.9C117 133.526 116.903 133.158 116.719 132.833C116.534 132.507 116.269 132.235 115.948 132.042Z" fill="#191919"/>
<path d="M71.5 136.067C72.6966 136.067 73.6667 135.097 73.6667 133.9C73.6667 132.703 72.6966 131.733 71.5 131.733C70.3034 131.733 69.3333 132.703 69.3333 133.9C69.3333 135.097 70.3034 136.067 71.5 136.067Z" fill="white"/>
<path d="M127.833 60.2334H112.667C112.092 60.2334 111.541 60.4617 111.135 60.868C110.728 61.2743 110.5 61.8254 110.5 62.4001V88.4001C110.5 88.9747 110.728 89.5258 111.135 89.9321C111.541 90.3385 112.092 90.5667 112.667 90.5667H127.833V60.2334Z" fill="#191919"/>
<path d="M69.3334 60.2334H54.1667V88.4001C54.1667 88.9747 54.395 89.5258 54.8013 89.9321C55.2076 90.3385 55.7587 90.5667 56.3334 90.5667H69.3334C69.908 90.5667 70.4591 90.3385 70.8654 89.9321C71.2717 89.5258 71.5 88.9747 71.5 88.4001V62.4001C71.5 61.8254 71.2717 61.2743 70.8654 60.868C70.4591 60.4617 69.908 60.2334 69.3334 60.2334Z" fill="#191919"/>
</svg>
