<svg width="135" height="26" viewBox="0 0 135 26" fill="none" xmlns="http://www.w3.org/2000/svg">
<path d="M24.3176 26.0002H9.9502V19.157H19.0175C19.0175 19.157 19.6167 19.2126 20.1047 18.5748C20.5441 17.9943 20.2148 17.2734 20.2148 17.2734H27.2279V23.0894C27.2282 24.688 25.9165 26.0002 24.3176 26.0002Z" fill="#191919"/>
<path d="M19.0061 1.45054L26.1851 13.8909L20.258 17.3121L15.727 9.4638C15.727 9.4638 15.474 8.91552 14.6779 8.81496C13.9585 8.72276 13.4953 9.36963 13.4953 9.36963L9.99634 3.29724L15.029 0.386183C16.4144 -0.411652 18.2038 0.0670493 19.0061 1.45054Z" fill="#191919"/>
<path d="M0.388397 18.3383L7.56744 5.89795L13.4975 9.32065L8.96912 17.1687C8.96912 17.1687 8.61532 17.6631 8.92314 18.4047C9.20908 19.0746 9.99462 19.1457 9.99462 19.1457L6.48956 25.2205L1.44906 22.3139C0.0707383 21.5136 -0.414847 19.7245 0.388397 18.3383Z" fill="#191919"/>
<path d="M37.0325 1.53223H43.3927V19.0384H54.1215V24.1H37.0325V1.53223Z" fill="#191919"/>
<path d="M74.0822 15.3953C74.0822 15.4383 74.0501 15.9434 73.9858 16.9106H61.3297C61.5866 17.8133 62.0792 18.5118 62.8073 19.0061C63.5568 19.479 64.4884 19.7154 65.6019 19.7154C66.4371 19.7154 67.1545 19.5972 67.7541 19.3608C68.3751 19.1243 68.9962 18.7375 69.6172 18.2001L72.8294 21.5531C71.1376 23.4445 68.6642 24.3902 65.4092 24.3902C63.3748 24.3902 61.5866 24.0033 60.0448 23.2295C58.5029 22.4558 57.3037 21.3811 56.4471 20.0056C55.6119 18.63 55.1943 17.0717 55.1943 15.3308C55.1943 13.6114 55.6012 12.0746 56.415 10.7205C57.2501 9.34497 58.3958 8.27032 59.852 7.49657C61.3083 6.72281 62.9465 6.33594 64.7667 6.33594C66.5013 6.33594 68.0753 6.70132 69.4887 7.43209C70.9021 8.14136 72.0157 9.18378 72.8294 10.5593C73.6646 11.9134 74.0822 13.5254 74.0822 15.3953ZM64.7989 10.6883C63.8566 10.6883 63.0643 10.957 62.4218 11.4943C61.8008 12.0316 61.4046 12.7624 61.2333 13.6866H68.3644C68.1931 12.7624 67.7862 12.0316 67.1438 11.4943C66.5228 10.957 65.7411 10.6883 64.7989 10.6883Z" fill="#191919"/>
<path d="M95.2058 6.62609V24.1H89.3917V22.2301C88.7492 22.9394 87.9783 23.4767 87.0789 23.8421C86.1795 24.2075 85.2265 24.3902 84.22 24.3902C81.9715 24.3902 80.1726 23.7239 78.8235 22.3913C77.4958 21.0587 76.8319 19.0599 76.8319 16.3947V6.62609H82.9351V15.3953C82.9351 16.7064 83.1814 17.6628 83.6739 18.2646C84.1665 18.8664 84.8839 19.1673 85.8261 19.1673C86.7898 19.1673 87.5714 18.8342 88.171 18.1679C88.7921 17.4801 89.1026 16.4377 89.1026 15.0407V6.62609H95.2058Z" fill="#191919"/>
<path d="M114.299 19.522V24.1H98.2376V20.4892L106.3 11.1719H98.4624V6.62609H113.977V10.2047L105.915 19.522H114.299Z" fill="#191919"/>
<path d="M134.594 15.3953C134.594 15.4383 134.562 15.9434 134.497 16.9106H121.841C122.098 17.8133 122.591 18.5118 123.319 19.0061C124.068 19.479 125 19.7154 126.113 19.7154C126.949 19.7154 127.666 19.5972 128.266 19.3608C128.887 19.1243 129.508 18.7375 130.129 18.2001L133.341 21.5531C131.649 23.4445 129.176 24.3902 125.921 24.3902C123.886 24.3902 122.098 24.0033 120.556 23.2295C119.014 22.4558 117.815 21.3811 116.959 20.0056C116.123 18.63 115.706 17.0717 115.706 15.3308C115.706 13.6114 116.113 12.0746 116.926 10.7205C117.762 9.34497 118.907 8.27032 120.364 7.49657C121.82 6.72281 123.458 6.33594 125.278 6.33594C127.013 6.33594 128.587 6.70132 130 7.43209C131.414 8.14136 132.527 9.18378 133.341 10.5593C134.176 11.9134 134.594 13.5254 134.594 15.3953ZM125.31 10.6883C124.368 10.6883 123.576 10.957 122.933 11.4943C122.312 12.0316 121.916 12.7624 121.745 13.6866H128.876C128.705 12.7624 128.298 12.0316 127.655 11.4943C127.034 10.957 126.253 10.6883 125.31 10.6883Z" fill="#191919"/>
</svg>
